{"title":"Cloud Atlas (2012) DVDRip [Russian]","uid":7918100,"size":2352179200,"categoryP":"video","categoryS":"movies","magnet":"?xt=urn:btih:752cbb59e41bc1dfd78067499694829607e4de68&amp;dn=Cloud+Atlas+%282012%29+DVDRip+%5BRussian%5D&amp;tr=udp%3A%2F%2Ftracker.openbittorrent.com%3A80&amp;tr=udp%3A%2F%2Fopen.demonii.com%3A1337&amp;tr=udp%3A%2F%2Ftracker.coppersurfer.tk%3A6969&amp;tr=udp%3A%2F%2Fexodus.desync.com%3A6969","seeders":18,"leechers":1,"uploader":"yfjfrj","files":-1,"time":1355412385,"description":"                         WARNING!!! RUSSIAN AUDIO ONLY!!!!!!\n\n\nAn exploration of how the actions of individual lives impact one another in the past, present and future, as one soul is shaped from a killer into a hero, and an act of kindness ripples across centuries to inspire a revolution. \n\n Directors: Tom Tykwer, Andy Wachowski \n Writers: David Mitchell (novel), Lana Wachowski (written for the screen by)\n Stars: Tom Hanks, Halle Berry and Hugh Grant \n\nMediaInfo 0.7.61\nGeneral\nComplete name                            : K:tempOblachnyi.atlas.2012.D.DVDRip_[Youtracker]_by_avproh.avi\nFormat                                   : AVI\nFormat/Info                              : Audio Video Interleave\nFormat profile                           : OpenDML\nFile size                                : 2.19 GiB\nDuration                                 : 2h 45mn\nOverall bit rate                         : 1 900 Kbps\nWriting application                      : VirtualDubMod 1.5.10.3 | www.virtualdub-fr.org || (build 2550/release)\nWriting library                          : VirtualDubMod build 2550/release\n\nVideo\nID                                       : 0\nFormat                                   : MPEG-4 Visual\nFormat profile                           : Advanced Simple@L5\nFormat settings, BVOP                    : 1\nFormat settings, QPel                    : No\nFormat settings, GMC                     : No warppoints\nFormat settings, Matrix                  : Custom\nCodec ID                                 : XVID\nCodec ID/Hint                            : XviD\nDuration                                 : 2h 45mn\nBit rate                                 : 1 440 Kbps\nWidth                                    : 720 pixels\nHeight                                   : 304 pixels\nDisplay aspect ratio                     : 2.35:1\nFrame rate                               : 25.000 fps\nColor space                              : YUV\nChroma subsampling                       : 4:2:0\nBit depth                                : 8 bits\nScan type                                : Progressive\nCompression mode                         : Lossy\nBits/(Pixel*Frame)                       : 0.263\nStream size                              : 1.66 GiB (76%)\nWriting library                          : XviD 65\n\nAudio\nID                                       : 1\nFormat                                   : AC-3\nFormat/Info                              : Audio Coding 3\nMode extension                           : CM (complete main)\nFormat settings, Endianness              : Big\nCodec ID                                 : 2000\nDuration                                 : 2h 45mn\nBit rate mode                            : Constant\nBit rate                                 : 448 Kbps\nChannel(s)                               : 6 channels\nChannel positions                        : Front: L C R, Side: L R, LFE\nSampling rate                            : 48.0 KHz\nBit depth                                : 16 bits\nCompression mode                         : Lossy\nStream size                              : 529 MiB (24%)\nAlignment                                : Split accross interleaves\nInterleave, duration                     : 40 ms (1.00 video frame)\nInterleave, preload duration             : 500 ms\n\nScreenshots: &lt;a href=&quot;\nhttp://img96.imageshack.us/img96/482/grabt.png&quot; rel=&quot;nofollow&quot; target=&quot;_NEW&quot;&gt;\nhttp://img96.imageshack.us/img96/482/grabt.png&lt;/a&gt; &lt;a href=&quot;\nhttp://img577.imageshack.us/img577/7646/grab2k.png&quot; rel=&quot;nofollow&quot; target=&quot;_NEW&quot;&gt;\nhttp://img577.imageshack.us/img577/7646/grab2k.png&lt;/a&gt; &lt;a href=&quot;\nhttp://img811.imageshack.us/img811/2919/grab3cs.png&quot; rel=&quot;nofollow&quot; target=&quot;_NEW&quot;&gt;\nhttp://img811.imageshack.us/img811/2919/grab3cs.png&lt;/a&gt; &lt;a href=&quot;\nhttp://img42.imageshack.us/img42/6310/grab4a.png&quot; rel=&quot;nofollow&quot; target=&quot;_NEW&quot;&gt;\nhttp://img42.imageshack.us/img42/6310/grab4a.png&lt;/a&gt; &lt;a href=&quot;\nhttp://img195.imageshack.us/img195/5672/grab5pq.png&quot; rel=&quot;nofollow&quot; target=&quot;_NEW&quot;&gt;\nhttp://img195.imageshack.us/img195/5672/grab5pq.png&lt;/a&gt; &lt;a href=&quot;\nhttp://img703.imageshack.us/img703/4476/grab6dq.png&quot; rel=&quot;nofollow&quot; target=&quot;_NEW&quot;&gt;\nhttp://img703.imageshack.us/img703/4476/grab6dq.png&lt;/a&gt; &lt;a href=&quot;\nhttp://img717.imageshack.us/img717/2829/grab7jl.png&quot; rel=&quot;nofollow&quot; target=&quot;_NEW&quot;&gt;\nhttp://img717.imageshack.us/img717/2829/grab7jl.png&lt;/a&gt; &lt;a href=&quot;\nhttp://img59.imageshack.us/img59/5323/grab8g.png&quot; rel=&quot;nofollow&quot; target=&quot;_NEW&quot;&gt;\nhttp://img59.imageshack.us/img59/5323/grab8g.png&lt;/a&gt; &lt;a href=&quot;\nhttp://img24.imageshack.us/img24/4434/grab9w.png&quot; rel=&quot;nofollow&quot; target=&quot;_NEW&quot;&gt;\nhttp://img24.imageshack.us/img24/4434/grab9w.png&lt;/a&gt;","torrent":{"xt":"urn:btih:752cbb59e41bc1dfd78067499694829607e4de68","amp;dn":"Cloud+Atlas+%282012%29+DVDRip+%5BRussian%5D","amp;tr":["udp%3A%2F%2Ftracker.openbittorrent.com%3A80","udp%3A%2F%2Fopen.demonii.com%3A1337","udp%3A%2F%2Ftracker.coppersurfer.tk%3A6969","udp%3A%2F%2Fexodus.desync.com%3A6969"],"infoHash":"752cbb59e41bc1dfd78067499694829607e4de68","infoHashBuffer":{"type":"Buffer","data":[117,44,187,89,228,27,193,223,215,128,103,73,150,148,130,150,7,228,222,104]},"announce":[],"urlList":[]}}